<svg width="256" height="256" viewBox="0 0 256 256" fill="none" xmlns="http://www.w3.org/2000/svg">
<rect width="256" height="256" rx="16" fill="url(#paint0_linear_7_274)"/>
<g clip-path="url(#clip0_7_274)">
<path d="M127.5 199.045C166.854 199.045 198.757 167.142 198.757 127.788C198.757 88.4339 166.854 56.531 127.5 56.531C88.1459 56.531 56.243 88.4339 56.243 127.788C56.243 167.142 88.1459 199.045 127.5 199.045Z" stroke="#1A1A1A" stroke-width="11.6156" stroke-linecap="round" stroke-linejoin="round"/>
<path d="M127.5 199.045V127.788V56.531C88.1459 56.531 56.243 88.4339 56.243 127.788C56.243 167.142 88.1459 199.045 127.5 199.045Z" fill="#1A1A1A" stroke="#1A1A1A" stroke-width="11.6156" stroke-linecap="round" stroke-linejoin="round"/>
<path d="M127.5 174.251C153.16 174.251 173.962 153.449 173.962 127.788C173.962 102.127 153.16 81.3255 127.5 81.3255C101.839 81.3255 81.0373 102.127 81.0373 127.788C81.0373 153.449 101.839 174.251 127.5 174.251Z" stroke="#1A1A1A" stroke-width="11.6156" stroke-linecap="round" stroke-linejoin="round"/>
<path d="M130.99 80.962V173.742" stroke="#1A1A1A" stroke-width="11.6156" stroke-linecap="round" stroke-linejoin="round"/>
<path d="M150.731 87.5399V168.036" stroke="#1A1A1A" stroke-width="11.6156" stroke-linecap="round" stroke-linejoin="round"/>
</g>
<defs>
<linearGradient id="paint0_linear_7_274" x1="31.5" y1="28.5" x2="203.5" y2="256" gradientUnits="userSpaceOnUse">
<stop stop-color="#EBE6DE"/>
<stop offset="1" stop-color="#EBE6DE"/>
</linearGradient>
<clipPath id="clip0_7_274">
<rect width="155" height="155" fill="white" transform="translate(50 50)"/>
</clipPath>
</defs>
</svg>
